<svg width="800" height="520" viewBox="0 0 800 520" fill="none" xmlns="http://www.w3.org/2000/svg">
  <defs>
    <linearGradient id="g1" x1="400" y1="0" x2="400" y2="520" gradientUnits="userSpaceOnUse">
      <stop stop-color="#98D8E8"/>
      <stop offset="1" stop-color="#F5E6B8"/>
    </linearGradient>
  </defs>
  <rect width="800" height="520" fill="url(#g1)"/>
  <circle cx="642" cy="118" r="46" fill="#FFF6D9"/>
  <path d="M0 360C118 292 212 270 324 300C438 330 520 326 800 252V520H0V360Z" fill="#85B96B"/>
  <path d="M0 392C128 346 238 338 344 358C452 378 600 378 800 330V520H0V392Z" fill="#6EA45D"/>
  <path d="M92 332L162 248L232 332H92Z" fill="#E2B37A"/>
  <rect x="126" y="332" width="72" height="64" fill="#F2DDB4"/>
  <rect x="153" y="354" width="20" height="42" fill="#8D6A45"/>
  <ellipse cx="530" cy="328" rx="88" ry="34" fill="#D8F0C3"/>
  <ellipse cx="540" cy="316" rx="66" ry="46" fill="#7EB868"/>
  <rect x="528" y="340" width="16" height="46" rx="8" fill="#70543A"/>
  <text x="40" y="468" fill="#1E2A22" font-family="Arial, sans-serif" font-size="34" font-weight="700">GHIBLI</text>
</svg>
