<svg width="800" height="520" viewBox="0 0 800 520" fill="none" xmlns="http://www.w3.org/2000/svg">
  <defs>
    <linearGradient id="g3" x1="400" y1="0" x2="400" y2="520" gradientUnits="userSpaceOnUse">
      <stop stop-color="#7A6652"/>
      <stop offset="1" stop-color="#D0B08C"/>
    </linearGradient>
  </defs>
  <rect width="800" height="520" fill="url(#g3)"/>
  <rect y="338" width="800" height="182" fill="#6C513E"/>
  <rect x="118" y="184" width="58" height="192" fill="#493529"/>
  <rect x="208" y="154" width="74" height="224" fill="#584233"/>
  <rect x="310" y="230" width="88" height="148" fill="#3F2F25"/>
  <rect x="462" y="126" width="72" height="252" fill="#4E3A2C"/>
  <rect x="566" y="206" width="94" height="172" fill="#624B39"/>
  <path d="M0 356C84 344 144 322 210 292C286 256 360 252 442 278C536 308 648 306 800 262V520H0V356Z" fill="#8C6A4C" fill-opacity="0.72"/>
  <path d="M42 110L118 70" stroke="#D5BF9E" stroke-width="10" stroke-linecap="round"/>
  <path d="M116 112L190 72" stroke="#D5BF9E" stroke-width="10" stroke-linecap="round"/>
  <text x="40" y="468" fill="#1E130D" font-family="Arial, sans-serif" font-size="34" font-weight="700">WASTELAND</text>
</svg>
